<svg width="384" height="96" xmlns="http://www.w3.org/2000/svg" xmlns:xlink="http://www.w3.org/1999/xlink" overflow="hidden"><defs><clipPath id="clip0"><rect x="0" y="0" width="384" height="96"/></clipPath></defs><g clip-path="url(#clip0)"><rect x="0" y="0" width="384" height="96" fill="#FFFFFF"/><text fill="#404040" font-family="Montserrat,Montserrat_MSFontService,sans-serif" font-weight="600" font-size="88" transform="translate(95.8922 73)">atems</text><path d="M51 13C51 8.58172 54.5817 5 59 5 63.4183 5 67 8.58172 67 13 67 17.4183 63.4183 21 59 21 54.5817 21 51 17.4183 51 13Z" fill="#404040" fill-rule="evenodd"/><path d="M48 23C48 17.4772 52.701 13 58.5 13 64.299 13 69 17.4772 69 23 69 28.5228 64.299 33 58.5 33 52.701 33 48 28.5228 48 23Z" fill="#404040" fill-rule="evenodd"/><path d="M58 34.5C58 30.3579 61.3579 27 65.5 27 69.6421 27 73 30.3579 73 34.5 73 38.6421 69.6421 42 65.5 42 61.3579 42 58 38.6421 58 34.5Z" fill="#404040" fill-rule="evenodd"/><path d="M53 46.5C53 42.3579 56.3579 39 60.5 39 64.6421 39 68 42.3579 68 46.5 68 50.6421 64.6421 54 60.5 54 56.3579 54 53 50.6421 53 46.5Z" fill="#404040" fill-rule="evenodd"/><path d="M37 39C37 32.9249 41.9249 28 48 28 54.0751 28 59 32.9249 59 39 59 45.0751 54.0751 50 48 50 41.9249 50 37 45.0751 37 39Z" fill="#404040" fill-rule="evenodd"/><path d="M36 81C36 75.4771 40.4772 71 46 71 51.5228 71 56 75.4771 56 81 56 86.5228 51.5228 91 46 91 40.4772 91 36 86.5228 36 81Z" fill="#404040" fill-rule="evenodd"/><path d="M41 68C41 62.4772 45.4772 58 51 58 56.5228 58 61 62.4772 61 68 61 73.5228 56.5228 78 51 78 45.4772 78 41 73.5228 41 68Z" fill="#404040" fill-rule="evenodd"/><path d="M42 58C42 54.134 45.134 51 49 51 52.866 51 56 54.134 56 58 56 61.866 52.866 65 49 65 45.134 65 42 61.866 42 58Z" fill="#404040" fill-rule="evenodd"/><path d="M29 50C29 43.9249 33.9249 39 40 39 46.0751 39 51 43.9249 51 50 51 56.0751 46.0751 61 40 61 33.9249 61 29 56.0751 29 50Z" fill="#404040" fill-rule="evenodd"/><path d="M27 64C27 59.0294 30.8056 55 35.5 55 40.1944 55 44 59.0294 44 64 44 68.9706 40.1944 73 35.5 73 30.8056 73 27 68.9706 27 64Z" fill="#404040" fill-rule="evenodd"/><path d="M31 52C31 47.0294 35.0294 43 40 43 44.9706 43 49 47.0294 49 52 49 56.9706 44.9706 61 40 61 35.0294 61 31 56.9706 31 52Z" fill="#404040" fill-rule="evenodd"/><path d="M4 57.5C4 52.8056 7.80558 49 12.5 49 17.1944 49 21 52.8056 21 57.5 21 62.1944 17.1944 66 12.5 66 7.80558 66 4 62.1944 4 57.5Z" fill="#404040" fill-rule="evenodd"/><path d="M13 67C13 62.0294 17.0294 58 22 58 26.9706 58 31 62.0294 31 67 31 71.9706 26.9706 76 22 76 17.0294 76 13 71.9706 13 67Z" fill="#404040" fill-rule="evenodd"/><path d="M23 56.5C23 52.3579 26.3579 49 30.5 49 34.6421 49 38 52.3579 38 56.5 38 60.6421 34.6421 64 30.5 64 26.3579 64 23 60.6421 23 56.5Z" fill="#404040" fill-rule="evenodd"/><path d="M0 67.5C-1.20948e-15 62.2533 4.25329 58 9.5 58 14.7467 58 19 62.2533 19 67.5 19 72.7467 14.7467 77 9.5 77 4.25329 77-6.04738e-15 72.7467 0 67.5Z" fill="#404040" fill-rule="evenodd"/><path d="M49 30.5C49 26.3579 52.3579 23 56.5 23 60.6421 23 64 26.3579 64 30.5 64 34.6421 60.6421 38 56.5 38 52.3579 38 49 34.6421 49 30.5Z" fill="#404040" fill-rule="evenodd"/><path d="M52 40.5C52 36.3579 55.3579 33 59.5 33 63.6421 33 67 36.3579 67 40.5 67 44.6421 63.6421 48 59.5 48 55.3579 48 52 44.6421 52 40.5Z" fill="#404040" fill-rule="evenodd"/></g></svg>