<svg width="433" height="186" xmlns="http://www.w3.org/2000/svg" xmlns:xlink="http://www.w3.org/1999/xlink" overflow="hidden"><defs><clipPath id="clip0"><rect x="411" y="258" width="433" height="186"/></clipPath></defs><g clip-path="url(#clip0)" transform="translate(-411 -258)"><text font-family="Montserrat,Montserrat_MSFontService,sans-serif" font-weight="600" font-size="88" transform="translate(507.011 369)">atems</text><path d="M462 309C462 304.582 465.582 301 470 301 474.418 301 478 304.582 478 309 478 313.418 474.418 317 470 317 465.582 317 462 313.418 462 309Z" fill-rule="evenodd"/><path d="M460 319C460 313.477 464.477 309 470 309 475.523 309 480 313.477 480 319 480 324.523 475.523 329 470 329 464.477 329 460 324.523 460 319Z" fill-rule="evenodd"/><path d="M469 330.5C469 326.358 472.358 323 476.5 323 480.642 323 484 326.358 484 330.5 484 334.642 480.642 338 476.5 338 472.358 338 469 334.642 469 330.5Z" fill-rule="evenodd"/><path d="M464 342.5C464 338.358 467.358 335 471.5 335 475.642 335 479 338.358 479 342.5 479 346.642 475.642 350 471.5 350 467.358 350 464 346.642 464 342.5Z" fill-rule="evenodd"/><path d="M448 335C448 328.925 452.925 324 459 324 465.075 324 470 328.925 470 335 470 341.075 465.075 346 459 346 452.925 346 448 341.075 448 335Z" fill-rule="evenodd"/><path d="M448 377C448 371.477 452.253 367 457.5 367 462.747 367 467 371.477 467 377 467 382.523 462.747 387 457.5 387 452.253 387 448 382.523 448 377Z" fill-rule="evenodd"/><path d="M453 364C453 358.477 457.253 354 462.5 354 467.747 354 472 358.477 472 364 472 369.523 467.747 374 462.5 374 457.253 374 453 369.523 453 364Z" fill-rule="evenodd"/><path d="M453 354C453 350.134 456.134 347 460 347 463.866 347 467 350.134 467 354 467 357.866 463.866 361 460 361 456.134 361 453 357.866 453 354Z" fill-rule="evenodd"/><path d="M440 346C440 339.925 444.925 335 451 335 457.075 335 462 339.925 462 346 462 352.075 457.075 357 451 357 444.925 357 440 352.075 440 346Z" fill-rule="evenodd"/><path d="M438 360C438 355.029 442.029 351 447 351 451.971 351 456 355.029 456 360 456 364.971 451.971 369 447 369 442.029 369 438 364.971 438 360Z" fill-rule="evenodd"/><path d="M442 347.5C442 342.806 446.029 339 451 339 455.971 339 460 342.806 460 347.5 460 352.194 455.971 356 451 356 446.029 356 442 352.194 442 347.5Z" fill-rule="evenodd"/><path d="M415 353.5C415 348.806 419.029 345 424 345 428.971 345 433 348.806 433 353.5 433 358.194 428.971 362 424 362 419.029 362 415 358.194 415 353.5Z" fill-rule="evenodd"/><path d="M424 363C424 358.029 428.029 354 433 354 437.971 354 442 358.029 442 363 442 367.971 437.971 372 433 372 428.029 372 424 367.971 424 363Z" fill-rule="evenodd"/><path d="M434 352.5C434 348.358 437.358 345 441.5 345 445.642 345 449 348.358 449 352.5 449 356.642 445.642 360 441.5 360 437.358 360 434 356.642 434 352.5Z" fill-rule="evenodd"/><path d="M411 363.5C411 358.253 415.253 354 420.5 354 425.747 354 430 358.253 430 363.5 430 368.747 425.747 373 420.5 373 415.253 373 411 368.747 411 363.5Z" fill-rule="evenodd"/><path d="M460 326.5C460 322.358 463.358 319 467.5 319 471.642 319 475 322.358 475 326.5 475 330.642 471.642 334 467.5 334 463.358 334 460 330.642 460 326.5Z" fill-rule="evenodd"/><path d="M463 335.5C463 331.358 466.358 328 470.5 328 474.642 328 478 331.358 478 335.5 478 339.642 474.642 343 470.5 343 466.358 343 463 339.642 463 335.5Z" fill-rule="evenodd"/></g></svg>