<svg width="433" height="186" xmlns="http://www.w3.org/2000/svg" xmlns:xlink="http://www.w3.org/1999/xlink" overflow="hidden"><defs><clipPath id="clip0"><rect x="411" y="532" width="433" height="186"/></clipPath></defs><g clip-path="url(#clip0)" transform="translate(-411 -532)"><text fill="#D9D9D9" font-family="Montserrat,Montserrat_MSFontService,sans-serif" font-weight="600" font-size="88" transform="translate(507.011 643)">atems</text><path d="M462 583C462 578.582 465.582 575 470 575 474.418 575 478 578.582 478 583 478 587.418 474.418 591 470 591 465.582 591 462 587.418 462 583Z" fill="#D9D9D9" fill-rule="evenodd"/><path d="M460 593.5C460 587.701 464.477 583 470 583 475.523 583 480 587.701 480 593.5 480 599.299 475.523 604 470 604 464.477 604 460 599.299 460 593.5Z" fill="#D9D9D9" fill-rule="evenodd"/><path d="M469 605.5C469 601.358 472.358 598 476.5 598 480.642 598 484 601.358 484 605.5 484 609.642 480.642 613 476.5 613 472.358 613 469 609.642 469 605.5Z" fill="#D9D9D9" fill-rule="evenodd"/><path d="M464 616.5C464 612.358 467.358 609 471.5 609 475.642 609 479 612.358 479 616.5 479 620.642 475.642 624 471.5 624 467.358 624 464 620.642 464 616.5Z" fill="#D9D9D9" fill-rule="evenodd"/><path d="M448 609C448 602.925 452.925 598 459 598 465.075 598 470 602.925 470 609 470 615.075 465.075 620 459 620 452.925 620 448 615.075 448 609Z" fill="#D9D9D9" fill-rule="evenodd"/><path d="M448 651.5C448 646.253 452.253 642 457.5 642 462.747 642 467 646.253 467 651.5 467 656.747 462.747 661 457.5 661 452.253 661 448 656.747 448 651.5Z" fill="#D9D9D9" fill-rule="evenodd"/><path d="M453 638.5C453 633.253 457.253 629 462.5 629 467.747 629 472 633.253 472 638.5 472 643.747 467.747 648 462.5 648 457.253 648 453 643.747 453 638.5Z" fill="#D9D9D9" fill-rule="evenodd"/><path d="M453 628C453 624.134 456.134 621 460 621 463.866 621 467 624.134 467 628 467 631.866 463.866 635 460 635 456.134 635 453 631.866 453 628Z" fill="#D9D9D9" fill-rule="evenodd"/><path d="M440 620C440 613.925 444.925 609 451 609 457.075 609 462 613.925 462 620 462 626.075 457.075 631 451 631 444.925 631 440 626.075 440 620Z" fill="#D9D9D9" fill-rule="evenodd"/><path d="M438 634.5C438 629.806 442.029 626 447 626 451.971 626 456 629.806 456 634.5 456 639.194 451.971 643 447 643 442.029 643 438 639.194 438 634.5Z" fill="#D9D9D9" fill-rule="evenodd"/><path d="M442 622C442 617.029 446.029 613 451 613 455.971 613 460 617.029 460 622 460 626.971 455.971 631 451 631 446.029 631 442 626.971 442 622Z" fill="#D9D9D9" fill-rule="evenodd"/><path d="M415 627.5C415 622.806 419.029 619 424 619 428.971 619 433 622.806 433 627.5 433 632.194 428.971 636 424 636 419.029 636 415 632.194 415 627.5Z" fill="#D9D9D9" fill-rule="evenodd"/><path d="M424 637.5C424 632.253 428.029 628 433 628 437.971 628 442 632.253 442 637.5 442 642.747 437.971 647 433 647 428.029 647 424 642.747 424 637.5Z" fill="#D9D9D9" fill-rule="evenodd"/><path d="M434 627C434 622.582 437.358 619 441.5 619 445.642 619 449 622.582 449 627 449 631.418 445.642 635 441.5 635 437.358 635 434 631.418 434 627Z" fill="#D9D9D9" fill-rule="evenodd"/><path d="M411 638C411 633.029 415.253 629 420.5 629 425.747 629 430 633.029 430 638 430 642.971 425.747 647 420.5 647 415.253 647 411 642.971 411 638Z" fill="#D9D9D9" fill-rule="evenodd"/><path d="M460 601.5C460 597.358 463.358 594 467.5 594 471.642 594 475 597.358 475 601.5 475 605.642 471.642 609 467.5 609 463.358 609 460 605.642 460 601.5Z" fill="#D9D9D9" fill-rule="evenodd"/><path d="M463 610.5C463 606.358 466.358 603 470.5 603 474.642 603 478 606.358 478 610.5 478 614.642 474.642 618 470.5 618 466.358 618 463 614.642 463 610.5Z" fill="#D9D9D9" fill-rule="evenodd"/></g></svg>