<svg width="434" height="187" xmlns="http://www.w3.org/2000/svg" xmlns:xlink="http://www.w3.org/1999/xlink" overflow="hidden"><defs><clipPath id="clip0"><rect x="-38" y="-55" width="434" height="187"/></clipPath></defs><g clip-path="url(#clip0)" transform="translate(38 55)"><text fill="#7F7F7F" font-family="Montserrat,Montserrat_MSFontService,sans-serif" font-weight="600" font-size="88" transform="translate(59.0106 57)">atems</text><path d="M14-3C14-7.41828 17.5817-11 22-11 26.4183-11 30-7.41828 30-3 30 1.41828 26.4183 5 22 5 17.5817 5 14 1.41828 14-3Z" fill="#7F7F7F" fill-rule="evenodd"/><path d="M12 7C12 1.47715 16.4772-3 22-3 27.5228-3 32 1.47715 32 7 32 12.5228 27.5228 17 22 17 16.4772 17 12 12.5228 12 7Z" fill="#7F7F7F" fill-rule="evenodd"/><path d="M21 18.5C21 14.3579 24.3579 11 28.5 11 32.6421 11 36 14.3579 36 18.5 36 22.6421 32.6421 26 28.5 26 24.3579 26 21 22.6421 21 18.5Z" fill="#7F7F7F" fill-rule="evenodd"/><path d="M16 30.5C16 26.3579 19.3579 23 23.5 23 27.6421 23 31 26.3579 31 30.5 31 34.6421 27.6421 38 23.5 38 19.3579 38 16 34.6421 16 30.5Z" fill="#7F7F7F" fill-rule="evenodd"/><path d="M0 23C-1.40045e-15 16.9249 4.92487 12 11 12 17.0751 12 22 16.9249 22 23 22 29.0751 17.0751 34 11 34 4.92487 34-7.00223e-15 29.0751 0 23Z" fill="#7F7F7F" fill-rule="evenodd"/><path d="M0 65C-1.20948e-15 59.4772 4.25329 55 9.5 55 14.7467 55 19 59.4772 19 65 19 70.5228 14.7467 75 9.5 75 4.25329 75-6.04738e-15 70.5228 0 65Z" fill="#7F7F7F" fill-rule="evenodd"/><path d="M5 52C5 46.4772 9.25329 42 14.5 42 19.7467 42 24 46.4772 24 52 24 57.5228 19.7467 62 14.5 62 9.25329 62 5 57.5228 5 52Z" fill="#7F7F7F" fill-rule="evenodd"/><path d="M5 42C5 38.134 8.13401 35 12 35 15.866 35 19 38.134 19 42 19 45.866 15.866 49 12 49 8.13401 49 5 45.866 5 42Z" fill="#7F7F7F" fill-rule="evenodd"/><path d="M-8 34C-8 27.9249-3.07513 23 3 23 9.07513 23 14 27.9249 14 34 14 40.0751 9.07513 45 3 45-3.07513 45-8 40.0751-8 34Z" fill="#7F7F7F" fill-rule="evenodd"/><path d="M-10 48C-10 43.0294-5.97056 39-1 39 3.97056 39 8 43.0294 8 48 8 52.9706 3.97056 57-1 57-5.97056 57-10 52.9706-10 48Z" fill="#7F7F7F" fill-rule="evenodd"/><path d="M-6 35.5C-6 30.8056-1.97056 27 3 27 7.97056 27 12 30.8056 12 35.5 12 40.1944 7.97056 44 3 44-1.97056 44-6 40.1944-6 35.5Z" fill="#7F7F7F" fill-rule="evenodd"/><path d="M-33 41.5C-33 36.8056-28.9706 33-24 33-19.0294 33-15 36.8056-15 41.5-15 46.1944-19.0294 50-24 50-28.9706 50-33 46.1944-33 41.5Z" fill="#7F7F7F" fill-rule="evenodd"/><path d="M-24 51C-24 46.0294-19.9706 42-15 42-10.0294 42-6 46.0294-6 51-6 55.9706-10.0294 60-15 60-19.9706 60-24 55.9706-24 51Z" fill="#7F7F7F" fill-rule="evenodd"/><path d="M-14 40.5C-14 36.3579-10.6421 33-6.5 33-2.35786 33 1 36.3579 1 40.5 1 44.6421-2.35786 48-6.5 48-10.6421 48-14 44.6421-14 40.5Z" fill="#7F7F7F" fill-rule="evenodd"/><path d="M-37 51.5C-37 46.2533-32.7467 42-27.5 42-22.2533 42-18 46.2533-18 51.5-18 56.7467-22.2533 61-27.5 61-32.7467 61-37 56.7467-37 51.5Z" fill="#7F7F7F" fill-rule="evenodd"/><path d="M12 14.5C12 10.3579 15.3579 7 19.5 7 23.6421 7 27 10.3579 27 14.5 27 18.6421 23.6421 22 19.5 22 15.3579 22 12 18.6421 12 14.5Z" fill="#7F7F7F" fill-rule="evenodd"/><path d="M15 23.5C15 19.3579 18.3579 16 22.5 16 26.6421 16 30 19.3579 30 23.5 30 27.6421 26.6421 31 22.5 31 18.3579 31 15 27.6421 15 23.5Z" fill="#7F7F7F" fill-rule="evenodd"/></g></svg>