<svg width="199" height="48" xmlns="http://www.w3.org/2000/svg" xmlns:xlink="http://www.w3.org/1999/xlink" overflow="hidden"><defs><clipPath id="clip0"><rect x="-69" y="20" width="199" height="48"/></clipPath><clipPath id="clip1"><rect x="-68" y="21" width="197" height="47"/></clipPath><clipPath id="clip2"><rect x="-68" y="21" width="198" height="47"/></clipPath><clipPath id="clip3"><rect x="-68" y="0" width="224" height="97"/></clipPath><clipPath id="clip4"><rect x="-68" y="0" width="224" height="97"/></clipPath></defs><g clip-path="url(#clip0)" transform="translate(69 -20)"><g clip-path="url(#clip1)"><g clip-path="url(#clip2)"><g clip-path="url(#clip3)"><g clip-path="url(#clip4)"><text fill="#D9D9D9" font-family="Montserrat,Montserrat_MSFontService,sans-serif" font-weight="700" font-size="198" transform="matrix(0.229302 0 0 0.230969 -18.5265 58)">atems</text><path d="M26.1404 6.87905C26.1404 4.59954 27.9883 2.75162 30.2678 2.75162 32.5473 2.75162 34.3953 4.59954 34.3953 6.87905 34.3953 9.15857 32.5473 11.0065 30.2678 11.0065 27.9883 11.0065 26.1404 9.15857 26.1404 6.87905Z" fill="#D9D9D9" fill-rule="evenodd" transform="matrix(1 0 0 1.00727 -68 19.6773)"/><path d="M24.9939 12.0383C24.9939 9.18895 27.3039 6.87905 30.1532 6.87905 33.0025 6.87905 35.3125 9.18895 35.3125 12.0383 35.3125 14.8877 33.0025 17.1976 30.1532 17.1976 27.3039 17.1976 24.9939 14.8877 24.9939 12.0383Z" fill="#D9D9D9" fill-rule="evenodd" transform="matrix(1 0 0 1.00727 -68 19.6773)"/><path d="M29.8092 17.8855C29.8092 15.7326 31.5544 13.9874 33.7074 13.9874 35.8603 13.9874 37.6055 15.7326 37.6055 17.8855 37.6055 20.0384 35.8603 21.7837 33.7074 21.7837 31.5544 21.7837 29.8092 20.0384 29.8092 17.8855Z" fill="#D9D9D9" fill-rule="evenodd" transform="matrix(1 0 0 1.00727 -68 19.6773)"/><path d="M27.5162 24.0767C27.5162 21.9238 29.2614 20.1785 31.4143 20.1785 33.5673 20.1785 35.3125 21.9238 35.3125 24.0767 35.3125 26.2296 33.5673 27.9748 31.4143 27.9748 29.2614 27.9748 27.5162 26.2296 27.5162 24.0767Z" fill="#D9D9D9" fill-rule="evenodd" transform="matrix(1 0 0 1.00727 -68 19.6773)"/><path d="M19.0321 20.1786C19.0321 17.0126 21.5986 14.446 24.7646 14.446 27.9306 14.446 30.4971 17.0126 30.4971 20.1786 30.4971 23.3445 27.9306 25.9111 24.7646 25.9111 21.5986 25.9111 19.0321 23.3445 19.0321 20.1786Z" fill="#D9D9D9" fill-rule="evenodd" transform="matrix(1 0 0 1.00727 -68 19.6773)"/><path d="M18.8027 41.8476C18.8027 39.1248 21.0613 36.9176 23.8474 36.9176 26.6334 36.9176 28.892 39.1248 28.892 41.8476 28.892 44.5703 26.6334 46.7776 23.8474 46.7776 21.0613 46.7776 18.8027 44.5703 18.8027 41.8476Z" fill="#D9D9D9" fill-rule="evenodd" transform="matrix(1 0 0 1.00727 -68 19.6773)"/><path d="M21.3251 35.0832C21.3251 32.2972 23.5837 30.0385 26.3697 30.0385 29.1557 30.0385 31.4143 32.2972 31.4143 35.0832 31.4143 37.8692 29.1557 40.1278 26.3697 40.1278 23.5837 40.1278 21.3251 37.8692 21.3251 35.0832Z" fill="#D9D9D9" fill-rule="evenodd" transform="matrix(1 0 0 1.00727 -68 19.6773)"/><path d="M21.7837 30.0385C21.7837 28.0122 23.4262 26.3697 25.4525 26.3697 27.4788 26.3697 29.1213 28.0122 29.1213 30.0385 29.1213 32.0649 27.4788 33.7074 25.4525 33.7074 23.4262 33.7074 21.7837 32.0649 21.7837 30.0385Z" fill="#D9D9D9" fill-rule="evenodd" transform="matrix(1 0 0 1.00727 -68 19.6773)"/><path d="M14.9046 25.6818C14.9046 22.5158 17.4712 19.9493 20.6372 19.9493 23.8031 19.9493 26.3697 22.5158 26.3697 25.6818 26.3697 28.8478 23.8031 31.4143 20.6372 31.4143 17.4712 31.4143 14.9046 28.8478 14.9046 25.6818Z" fill="#D9D9D9" fill-rule="evenodd" transform="matrix(1 0 0 1.00727 -68 19.6773)"/><path d="M13.9874 33.1341C13.9874 30.6648 15.9893 28.6627 18.4588 28.6627 20.9283 28.6627 22.9302 30.6648 22.9302 33.1341 22.9302 35.6037 20.9283 37.6055 18.4588 37.6055 15.9893 37.6055 13.9874 35.6037 13.9874 33.1341Z" fill="#D9D9D9" fill-rule="evenodd" transform="matrix(1 0 0 1.00727 -68 19.6773)"/><path d="M16.0511 26.7137C16.0511 24.2441 18.053 22.2423 20.5225 22.2423 22.9919 22.2423 24.9939 24.2441 24.9939 26.7137 24.9939 29.183 22.9919 31.185 20.5225 31.185 18.053 31.185 16.0511 29.183 16.0511 26.7137Z" fill="#D9D9D9" fill-rule="evenodd" transform="matrix(1 0 0 1.00727 -68 19.6773)"/><path d="M2.06372 29.6946C2.06372 27.2252 4.06561 25.2232 6.5351 25.2232 9.00459 25.2232 11.0065 27.2252 11.0065 29.6946 11.0065 32.1642 9.00459 34.166 6.5351 34.166 4.06561 34.166 2.06372 32.1642 2.06372 29.6946Z" fill="#D9D9D9" fill-rule="evenodd" transform="matrix(1 0 0 1.00727 -68 19.6773)"/><path d="M6.87905 34.7392C6.87905 32.1431 8.93229 30.0385 11.4651 30.0385 13.9979 30.0385 16.0511 32.1431 16.0511 34.7392 16.0511 37.3354 13.9979 39.4399 11.4651 39.4399 8.93229 39.4399 6.87905 37.3354 6.87905 34.7392Z" fill="#D9D9D9" fill-rule="evenodd" transform="matrix(1 0 0 1.00727 -68 19.6773)"/><path d="M11.6944 29.236C11.6944 27.0198 13.491 25.2232 15.7072 25.2232 17.9234 25.2232 19.72 27.0198 19.72 29.236 19.72 31.4522 17.9234 33.2488 15.7072 33.2488 13.491 33.2488 11.6944 31.4522 11.6944 29.236Z" fill="#D9D9D9" fill-rule="evenodd" transform="matrix(1 0 0 1.00727 -68 19.6773)"/><path d="M0 34.9685C-6.13057e-16 32.2458 2.1559 30.0385 4.81534 30.0385 7.47478 30.0385 9.63067 32.2458 9.63067 34.9685 9.63067 37.6912 7.47478 39.8985 4.81534 39.8985 2.1559 39.8985-3.06528e-15 37.6912 0 34.9685Z" fill="#D9D9D9" fill-rule="evenodd" transform="matrix(1 0 0 1.00727 -68 19.6773)"/><path d="M25.2232 15.8218C25.2232 13.6689 26.9684 11.9237 29.1213 11.9237 31.2742 11.9237 33.0195 13.6689 33.0195 15.8218 33.0195 17.9747 31.2742 19.72 29.1213 19.72 26.9684 19.72 25.2232 17.9747 25.2232 15.8218Z" fill="#D9D9D9" fill-rule="evenodd" transform="matrix(1 0 0 1.00727 -68 19.6773)"/><path d="M26.8283 20.6372C26.8283 18.4843 28.5735 16.739 30.7264 16.739 32.8794 16.739 34.6246 18.4843 34.6246 20.6372 34.6246 22.7901 32.8794 24.5353 30.7264 24.5353 28.5735 24.5353 26.8283 22.7901 26.8283 20.6372Z" fill="#D9D9D9" fill-rule="evenodd" transform="matrix(1 0 0 1.00727 -68 19.6773)"/></g></g></g></g></g></svg>