<svg width="226" height="97" xmlns="http://www.w3.org/2000/svg" xmlns:xlink="http://www.w3.org/1999/xlink" overflow="hidden"><defs><clipPath id="clip0"><rect x="618" y="314" width="226" height="97"/></clipPath></defs><g clip-path="url(#clip0)" transform="translate(-618 -314)"><text fill="#EB2A7E" font-family="Montserrat,Montserrat_MSFontService,sans-serif" font-weight="700" font-size="45" transform="translate(668.387 372)">atems</text><path d="M644.995 342.012C644.995 339.803 646.786 338.012 648.995 338.012 651.204 338.012 652.995 339.803 652.995 342.012 652.995 344.221 651.204 346.012 648.995 346.012 646.786 346.012 644.995 344.221 644.995 342.012Z" fill="#EB2A7E" fill-rule="evenodd"/><path d="M643.995 347.012C643.995 344.25 646.233 342.012 648.995 342.012 651.756 342.012 653.995 344.25 653.995 347.012 653.995 349.774 651.756 352.012 648.995 352.012 646.233 352.012 643.995 349.774 643.995 347.012Z" fill="#EB2A7E" fill-rule="evenodd"/><path d="M648.995 353.013C648.995 350.804 650.562 349.013 652.495 349.013 654.428 349.013 655.995 350.804 655.995 353.013 655.995 355.222 654.428 357.013 652.495 357.013 650.562 357.013 648.995 355.222 648.995 353.013Z" fill="#EB2A7E" fill-rule="evenodd"/><path d="M646.995 359.013C646.995 356.804 648.562 355.013 650.495 355.013 652.428 355.013 653.995 356.804 653.995 359.013 653.995 361.222 652.428 363.013 650.495 363.013 648.562 363.013 646.995 361.222 646.995 359.013Z" fill="#EB2A7E" fill-rule="evenodd"/><path d="M637.995 355.512C637.995 352.474 640.457 350.012 643.495 350.012 646.532 350.012 648.995 352.474 648.995 355.512 648.995 358.55 646.532 361.012 643.495 361.012 640.457 361.012 637.995 358.55 637.995 355.512Z" fill="#EB2A7E" fill-rule="evenodd"/><path d="M637.995 377.013C637.995 374.251 640.233 372.013 642.995 372.013 645.756 372.013 647.995 374.251 647.995 377.013 647.995 379.774 645.756 382.013 642.995 382.013 640.233 382.013 637.995 379.774 637.995 377.013Z" fill="#EB2A7E" fill-rule="evenodd"/><path d="M639.995 370.012C639.995 367.251 642.233 365.013 644.995 365.013 647.756 365.013 649.995 367.251 649.995 370.012 649.995 372.774 647.756 375.013 644.995 375.013 642.233 375.013 639.995 372.774 639.995 370.012Z" fill="#EB2A7E" fill-rule="evenodd"/><path d="M640.995 365.014C640.995 362.805 642.562 361.014 644.495 361.014 646.428 361.014 647.995 362.805 647.995 365.014 647.995 367.223 646.428 369.014 644.495 369.014 642.562 369.014 640.995 367.223 640.995 365.014Z" fill="#EB2A7E" fill-rule="evenodd"/><path d="M633.995 360.512C633.995 357.475 636.457 355.012 639.495 355.012 642.533 355.012 644.995 357.475 644.995 360.512 644.995 363.55 642.533 366.012 639.495 366.012 636.457 366.012 633.995 363.55 633.995 360.512Z" fill="#EB2A7E" fill-rule="evenodd"/><path d="M632.995 367.512C632.995 365.027 635.009 363.012 637.495 363.012 639.98 363.012 641.995 365.027 641.995 367.512 641.995 369.998 639.98 372.012 637.495 372.012 635.009 372.012 632.995 369.998 632.995 367.512Z" fill="#EB2A7E" fill-rule="evenodd"/><path d="M634.995 361.513C634.995 359.028 637.01 357.013 639.495 357.013 641.98 357.013 643.995 359.028 643.995 361.513 643.995 363.998 641.98 366.013 639.495 366.013 637.01 366.013 634.995 363.998 634.995 361.513Z" fill="#EB2A7E" fill-rule="evenodd"/><path d="M620.995 364.513C620.995 362.027 623.009 360.013 625.495 360.013 627.98 360.013 629.995 362.027 629.995 364.513 629.995 366.998 627.98 369.013 625.495 369.013 623.009 369.013 620.995 366.998 620.995 364.513Z" fill="#EB2A7E" fill-rule="evenodd"/><path d="M625.995 369.512C625.995 367.027 628.01 365.012 630.495 365.012 632.98 365.012 634.995 367.027 634.995 369.512 634.995 371.997 632.98 374.012 630.495 374.012 628.01 374.012 625.995 371.997 625.995 369.512Z" fill="#EB2A7E" fill-rule="evenodd"/><path d="M630.995 364.013C630.995 361.803 632.562 360.013 634.495 360.013 636.428 360.013 637.995 361.803 637.995 364.013 637.995 366.222 636.428 368.013 634.495 368.013 632.562 368.013 630.995 366.222 630.995 364.013Z" fill="#EB2A7E" fill-rule="evenodd"/><path d="M618.994 370.013C618.994 367.251 621.233 365.013 623.995 365.013 626.756 365.013 628.995 367.251 628.995 370.013 628.995 372.774 626.756 375.013 623.995 375.013 621.233 375.013 618.994 372.774 618.994 370.013Z" fill="#EB2A7E" fill-rule="evenodd"/><path d="M643.994 351.013C643.994 348.804 645.785 347.013 647.995 347.013 650.204 347.013 651.994 348.804 651.994 351.013 651.994 353.222 650.204 355.013 647.995 355.013 645.785 355.013 643.994 353.222 643.994 351.013Z" fill="#EB2A7E" fill-rule="evenodd"/><path d="M645.995 356.013C645.995 353.804 647.562 352.013 649.495 352.013 651.428 352.013 652.995 353.804 652.995 356.013 652.995 358.222 651.428 360.013 649.495 360.013 647.562 360.013 645.995 358.222 645.995 356.013Z" fill="#EB2A7E" fill-rule="evenodd"/></g></svg>