<svg width="198" height="48" xmlns="http://www.w3.org/2000/svg" xmlns:xlink="http://www.w3.org/1999/xlink" overflow="hidden"><defs><clipPath id="clip0"><rect x="80" y="20" width="198" height="48"/></clipPath><clipPath id="clip1"><rect x="80" y="21" width="198" height="47"/></clipPath><clipPath id="clip2"><rect x="80" y="21" width="198" height="47"/></clipPath></defs><g clip-path="url(#clip0)" transform="translate(-80 -20)"><g clip-path="url(#clip1)"><g clip-path="url(#clip2)"><text fill="#404040" font-family="Montserrat,Montserrat_MSFontService,sans-serif" font-weight="700" font-size="198" transform="matrix(0.230466 0 0 0.230973 129.725 58)">atems</text><path d="M26.2731 6.91397C26.2731 4.62289 28.1304 2.76559 30.4215 2.76559 32.7125 2.76559 34.5699 4.62289 34.5699 6.91397 34.5699 9.20506 32.7125 11.0624 30.4215 11.0624 28.1304 11.0624 26.2731 9.20506 26.2731 6.91397Z" fill="#404040" fill-rule="evenodd" transform="matrix(1 0 0 1.0022 80 19.6763)"/><path d="M25.1208 12.0995C25.1208 9.23559 27.4425 6.91397 30.3062 6.91397 33.17 6.91397 35.4917 9.23559 35.4917 12.0995 35.4917 14.9633 33.17 17.2849 30.3062 17.2849 27.4425 17.2849 25.1208 14.9633 25.1208 12.0995Z" fill="#404040" fill-rule="evenodd" transform="matrix(1 0 0 1.0022 80 19.6763)"/><path d="M29.9605 17.9763C29.9605 15.8125 31.7146 14.0584 33.8785 14.0584 36.0423 14.0584 37.7964 15.8125 37.7964 17.9763 37.7964 20.1401 36.0423 21.8943 33.8785 21.8943 31.7146 21.8943 29.9605 20.1401 29.9605 17.9763Z" fill="#404040" fill-rule="evenodd" transform="matrix(1 0 0 1.0022 80 19.6763)"/><path d="M27.6559 24.1989C27.6559 22.0351 29.41 20.281 31.5738 20.281 33.7377 20.281 35.4917 22.0351 35.4917 24.1989 35.4917 26.3627 33.7377 28.1168 31.5738 28.1168 29.41 28.1168 27.6559 26.3627 27.6559 24.1989Z" fill="#404040" fill-rule="evenodd" transform="matrix(1 0 0 1.0022 80 19.6763)"/><path d="M19.1287 20.281C19.1287 17.0989 21.7082 14.5193 24.8903 14.5193 28.0723 14.5193 30.6519 17.0989 30.6519 20.281 30.6519 23.463 28.0723 26.0426 24.8903 26.0426 21.7082 26.0426 19.1287 23.463 19.1287 20.281Z" fill="#404040" fill-rule="evenodd" transform="matrix(1 0 0 1.0022 80 19.6763)"/><path d="M18.8982 42.06C18.8982 39.3235 21.1682 37.105 23.9684 37.105 26.7686 37.105 29.0387 39.3235 29.0387 42.06 29.0387 44.7966 26.7686 47.015 23.9684 47.015 21.1682 47.015 18.8982 44.7966 18.8982 42.06Z" fill="#404040" fill-rule="evenodd" transform="matrix(1 0 0 1.0022 80 19.6763)"/><path d="M21.4333 35.2613C21.4333 32.4611 23.7034 30.191 26.5036 30.191 29.3037 30.191 31.5738 32.4611 31.5738 35.2613 31.5738 38.0614 29.3037 40.3315 26.5036 40.3315 23.7034 40.3315 21.4333 38.0614 21.4333 35.2613Z" fill="#404040" fill-rule="evenodd" transform="matrix(1 0 0 1.0022 80 19.6763)"/><path d="M21.8943 30.191C21.8943 28.1544 23.5451 26.5036 25.5817 26.5036 27.6183 26.5036 29.2692 28.1544 29.2692 30.191 29.2692 32.2276 27.6183 33.8785 25.5817 33.8785 23.5451 33.8785 21.8943 32.2276 21.8943 30.191Z" fill="#404040" fill-rule="evenodd" transform="matrix(1 0 0 1.0022 80 19.6763)"/><path d="M14.9803 25.8122C14.9803 22.6301 17.5599 20.0505 20.7419 20.0505 23.924 20.0505 26.5036 22.6301 26.5036 25.8122 26.5036 28.9942 23.924 31.5738 20.7419 31.5738 17.5599 31.5738 14.9803 28.9942 14.9803 25.8122Z" fill="#404040" fill-rule="evenodd" transform="matrix(1 0 0 1.0022 80 19.6763)"/><path d="M14.0584 33.3023C14.0584 30.8204 16.0705 28.8082 18.5525 28.8082 21.0345 28.8082 23.0466 30.8204 23.0466 33.3023 23.0466 35.7844 21.0345 37.7964 18.5525 37.7964 16.0705 37.7964 14.0584 35.7844 14.0584 33.3023Z" fill="#404040" fill-rule="evenodd" transform="matrix(1 0 0 1.0022 80 19.6763)"/><path d="M16.1326 26.8493C16.1326 24.3671 18.1447 22.3552 20.6267 22.3552 23.1086 22.3552 25.1208 24.3671 25.1208 26.8493 25.1208 29.3311 23.1086 31.3433 20.6267 31.3433 18.1447 31.3433 16.1326 29.3311 16.1326 26.8493Z" fill="#404040" fill-rule="evenodd" transform="matrix(1 0 0 1.0022 80 19.6763)"/><path d="M2.07419 29.8453C2.07419 27.3634 4.08625 25.3512 6.56827 25.3512 9.0503 25.3512 11.0624 27.3634 11.0624 29.8453 11.0624 32.3274 9.0503 34.3394 6.56827 34.3394 4.08625 34.3394 2.07419 32.3274 2.07419 29.8453Z" fill="#404040" fill-rule="evenodd" transform="matrix(1 0 0 1.0022 80 19.6763)"/><path d="M6.91397 34.9156C6.91397 32.3062 8.97763 30.191 11.5233 30.191 14.0689 30.191 16.1326 32.3062 16.1326 34.9156 16.1326 37.5249 14.0689 39.6401 11.5233 39.6401 8.97763 39.6401 6.91397 37.5249 6.91397 34.9156Z" fill="#404040" fill-rule="evenodd" transform="matrix(1 0 0 1.0022 80 19.6763)"/><path d="M11.7538 29.3844C11.7538 27.1569 13.5595 25.3512 15.7869 25.3512 18.0144 25.3512 19.8201 27.1569 19.8201 29.3844 19.8201 31.6118 18.0144 33.4175 15.7869 33.4175 13.5595 33.4175 11.7538 31.6118 11.7538 29.3844Z" fill="#404040" fill-rule="evenodd" transform="matrix(1 0 0 1.0022 80 19.6763)"/><path d="M0 35.146C-6.16169e-16 32.4095 2.16684 30.191 4.83978 30.191 7.51272 30.191 9.67956 32.4095 9.67956 35.146 9.67956 37.8826 7.51272 40.101 4.83978 40.101 2.16684 40.101-3.08084e-15 37.8826 0 35.146Z" fill="#404040" fill-rule="evenodd" transform="matrix(1 0 0 1.0022 80 19.6763)"/><path d="M25.3512 15.9021C25.3512 13.7383 27.1053 11.9842 29.2692 11.9842 31.433 11.9842 33.1871 13.7383 33.1871 15.9021 33.1871 18.066 31.433 19.8201 29.2692 19.8201 27.1053 19.8201 25.3512 18.066 25.3512 15.9021Z" fill="#404040" fill-rule="evenodd" transform="matrix(1 0 0 1.0022 80 19.6763)"/><path d="M26.9645 20.7419C26.9645 18.5781 28.7186 16.824 30.8824 16.824 33.0463 16.824 34.8003 18.5781 34.8003 20.7419 34.8003 22.9057 33.0463 24.6598 30.8824 24.6598 28.7186 24.6598 26.9645 22.9057 26.9645 20.7419Z" fill="#404040" fill-rule="evenodd" transform="matrix(1 0 0 1.0022 80 19.6763)"/></g></g></g></svg>