<svg width="460" height="109" xmlns="http://www.w3.org/2000/svg" xmlns:xlink="http://www.w3.org/1999/xlink" overflow="hidden"><defs><clipPath id="clip0"><rect x="200" y="139" width="460" height="109"/></clipPath><clipPath id="clip1"><rect x="201" y="140" width="458" height="108"/></clipPath><clipPath id="clip2"><rect x="201" y="140" width="458" height="108"/></clipPath><clipPath id="clip3"><rect x="201" y="91" width="506" height="217"/></clipPath><clipPath id="clip4"><rect x="201" y="91" width="506" height="217"/></clipPath></defs><g clip-path="url(#clip0)" transform="translate(-200 -139)"><g clip-path="url(#clip1)"><g clip-path="url(#clip2)"><g clip-path="url(#clip3)"><g clip-path="url(#clip4)"><text fill="#EB2A7E" font-family="Montserrat,Montserrat_MSFontService,sans-serif" font-weight="700" font-size="101" transform="matrix(1.0001 0 0 1.00315 312.881 220)">atems</text><path d="M1452.14 770.105C1452.14 765.133 1456.17 761.104 1461.14 761.104 1466.11 761.104 1470.14 765.133 1470.14 770.105 1470.14 775.075 1466.11 779.106 1461.14 779.106 1456.17 779.106 1452.14 775.075 1452.14 770.105Z" fill="#EB2A7E" fill-rule="evenodd" transform="matrix(1 0 0 1.00305 -1191.14 -618.328)"/><path d="M1449.13 781.605C1449.13 775.254 1454.29 770.105 1460.64 770.105 1466.99 770.105 1472.14 775.254 1472.14 781.605 1472.14 787.959 1466.99 793.107 1460.64 793.107 1454.29 793.107 1449.13 787.959 1449.13 781.605Z" fill="#EB2A7E" fill-rule="evenodd" transform="matrix(1 0 0 1.00305 -1191.14 -618.328)"/><path d="M1460.14 794.606C1460.14 789.912 1463.94 786.107 1468.64 786.107 1473.33 786.107 1477.14 789.912 1477.14 794.606 1477.14 799.302 1473.33 803.108 1468.64 803.108 1463.94 803.108 1460.14 799.302 1460.14 794.606Z" fill="#EB2A7E" fill-rule="evenodd" transform="matrix(1 0 0 1.00305 -1191.14 -618.328)"/><path d="M1455.14 808.11C1455.14 803.138 1458.94 799.109 1463.64 799.109 1468.33 799.109 1472.14 803.138 1472.14 808.11 1472.14 813.081 1468.33 817.111 1463.64 817.111 1458.94 817.111 1455.14 813.081 1455.14 808.11Z" fill="#EB2A7E" fill-rule="evenodd" transform="matrix(1 0 0 1.00305 -1191.14 -618.328)"/><path d="M1436.13 799.607C1436.13 792.701 1441.72 787.107 1448.63 787.107 1455.54 787.107 1461.14 792.701 1461.14 799.607 1461.14 806.512 1455.54 812.109 1448.63 812.109 1441.72 812.109 1436.13 806.512 1436.13 799.607Z" fill="#EB2A7E" fill-rule="evenodd" transform="matrix(1 0 0 1.00305 -1191.14 -618.328)"/><path d="M1435.13 847.113C1435.13 841.037 1440.05 836.112 1446.13 836.112 1452.21 836.112 1457.14 841.037 1457.14 847.113 1457.14 853.188 1452.21 858.114 1446.13 858.114 1440.05 858.114 1435.13 853.188 1435.13 847.113Z" fill="#EB2A7E" fill-rule="evenodd" transform="matrix(1 0 0 1.00305 -1191.14 -618.328)"/><path d="M1441.13 832.612C1441.13 826.261 1446.05 821.111 1452.14 821.111 1458.21 821.111 1463.14 826.261 1463.14 832.612 1463.14 838.964 1458.21 844.113 1452.14 844.113 1446.05 844.113 1441.13 838.964 1441.13 832.612Z" fill="#EB2A7E" fill-rule="evenodd" transform="matrix(1 0 0 1.00305 -1191.14 -618.328)"/><path d="M1442.13 821.11C1442.13 816.691 1445.71 813.109 1450.14 813.109 1454.56 813.109 1458.14 816.691 1458.14 821.11 1458.14 825.529 1454.56 829.111 1450.14 829.111 1445.71 829.111 1442.13 825.529 1442.13 821.11Z" fill="#EB2A7E" fill-rule="evenodd" transform="matrix(1 0 0 1.00305 -1191.14 -618.328)"/><path d="M1426.13 811.608C1426.13 804.705 1431.95 799.108 1439.13 799.108 1446.31 799.108 1452.14 804.705 1452.14 811.608 1452.14 818.513 1446.31 824.11 1439.13 824.11 1431.95 824.11 1426.13 818.513 1426.13 811.608Z" fill="#EB2A7E" fill-rule="evenodd" transform="matrix(1 0 0 1.00305 -1191.14 -618.328)"/><path d="M1424.13 828.111C1424.13 822.587 1428.61 818.11 1434.13 818.11 1439.65 818.11 1444.13 822.587 1444.13 828.111 1444.13 833.633 1439.65 838.111 1434.13 838.111 1428.61 838.111 1424.13 833.633 1424.13 828.111Z" fill="#EB2A7E" fill-rule="evenodd" transform="matrix(1 0 0 1.00305 -1191.14 -618.328)"/><path d="M1428.13 814.109C1428.13 808.587 1432.83 804.108 1438.63 804.108 1444.43 804.108 1449.13 808.587 1449.13 814.109 1449.13 819.634 1444.43 824.11 1438.63 824.11 1432.83 824.11 1428.13 819.634 1428.13 814.109Z" fill="#EB2A7E" fill-rule="evenodd" transform="matrix(1 0 0 1.00305 -1191.14 -618.328)"/><path d="M1397.13 820.609C1397.13 815.362 1401.83 811.108 1407.63 811.108 1413.43 811.108 1418.13 815.362 1418.13 820.609 1418.13 825.857 1413.43 830.11 1407.63 830.11 1401.83 830.11 1397.13 825.857 1397.13 820.609Z" fill="#EB2A7E" fill-rule="evenodd" transform="matrix(1 0 0 1.00305 -1191.14 -618.328)"/><path d="M1408.13 831.611C1408.13 825.812 1412.83 821.11 1418.63 821.11 1424.43 821.11 1429.13 825.812 1429.13 831.611 1429.13 837.412 1424.43 842.112 1418.63 842.112 1412.83 842.112 1408.13 837.412 1408.13 831.611Z" fill="#EB2A7E" fill-rule="evenodd" transform="matrix(1 0 0 1.00305 -1191.14 -618.328)"/><path d="M1419.13 819.609C1419.13 814.913 1423.16 811.108 1428.13 811.108 1433.1 811.108 1437.13 814.913 1437.13 819.609 1437.13 824.303 1433.1 828.11 1428.13 828.11 1423.16 828.11 1419.13 824.303 1419.13 819.609Z" fill="#EB2A7E" fill-rule="evenodd" transform="matrix(1 0 0 1.00305 -1191.14 -618.328)"/><path d="M1393.13 832.111C1393.13 826.036 1397.83 821.11 1403.63 821.11 1409.43 821.11 1414.13 826.036 1414.13 832.111 1414.13 838.187 1409.43 843.112 1403.63 843.112 1397.83 843.112 1393.13 838.187 1393.13 832.111Z" fill="#EB2A7E" fill-rule="evenodd" transform="matrix(1 0 0 1.00305 -1191.14 -618.328)"/><path d="M1449.13 789.607C1449.13 784.911 1453.17 781.106 1458.14 781.106 1463.11 781.106 1467.14 784.911 1467.14 789.607 1467.14 794.3 1463.11 798.108 1458.14 798.108 1453.17 798.108 1449.13 794.3 1449.13 789.607Z" fill="#EB2A7E" fill-rule="evenodd" transform="matrix(1 0 0 1.00305 -1191.14 -618.328)"/><path d="M1453.14 800.608C1453.14 795.913 1456.94 792.107 1461.64 792.107 1466.33 792.107 1470.14 795.913 1470.14 800.608 1470.14 805.302 1466.33 809.109 1461.64 809.109 1456.94 809.109 1453.14 805.302 1453.14 800.608Z" fill="#EB2A7E" fill-rule="evenodd" transform="matrix(1 0 0 1.00305 -1191.14 -618.328)"/></g></g></g></g></g></svg>