<svg width="204" height="48" xmlns="http://www.w3.org/2000/svg" xmlns:xlink="http://www.w3.org/1999/xlink" overflow="hidden"><defs><clipPath id="clip0"><rect x="274" y="-205" width="204" height="48"/></clipPath><clipPath id="clip1"><rect x="275" y="-204" width="202" height="46"/></clipPath><clipPath id="clip2"><rect x="275" y="-204" width="202" height="46"/></clipPath><clipPath id="clip3"><rect x="275" y="-225" width="223" height="95"/></clipPath><clipPath id="clip4"><rect x="275" y="-225" width="223" height="95"/></clipPath></defs><g clip-path="url(#clip0)" transform="translate(-274 205)"><g clip-path="url(#clip1)"><g clip-path="url(#clip2)"><g clip-path="url(#clip3)"><g clip-path="url(#clip4)"><text fill="#7F7F7F" font-family="Montserrat,Montserrat_MSFontService,sans-serif" font-weight="700" font-size="198" transform="matrix(0.229236 0 0 0.226385 324.387 -169)">atems</text><path d="M77.4236-112.513C77.4236-114.764 79.248-116.588 81.4985-116.588 83.749-116.588 85.5734-114.764 85.5734-112.513 85.5734-110.263 83.749-108.438 81.4985-108.438 79.248-108.438 77.4236-110.263 77.4236-112.513Z" fill="#7F7F7F" fill-rule="evenodd" transform="matrix(1.0126 0 0 1 222.734 -86.3712)"/><path d="M76.2916-107.42C76.2916-110.233 78.572-112.513 81.3853-112.513 84.1983-112.513 86.4789-110.233 86.4789-107.42 86.4789-104.606 84.1983-102.326 81.3853-102.326 78.572-102.326 76.2916-104.606 76.2916-107.42Z" fill="#7F7F7F" fill-rule="evenodd" transform="matrix(1.0126 0 0 1 222.734 -86.3712)"/><path d="M81.0457-101.647C81.0457-103.772 82.718-105.495 84.7811-105.495 86.8441-105.495 88.5164-103.772 88.5164-101.647 88.5164-99.5212 86.8441-97.7982 84.7811-97.7982 82.718-97.7982 81.0457-99.5212 81.0457-101.647Z" fill="#7F7F7F" fill-rule="evenodd" transform="matrix(1.0126 0 0 1 222.734 -86.3712)"/><path d="M78.7819-95.5343C78.7819-97.6599 80.4542-99.3829 82.5172-99.3829 84.5803-99.3829 86.2526-97.6599 86.2526-95.5343 86.2526-93.4088 84.5803-91.6858 82.5172-91.6858 80.4542-91.6858 78.7819-93.4088 78.7819-95.5343Z" fill="#7F7F7F" fill-rule="evenodd" transform="matrix(1.0126 0 0 1 222.734 -86.3712)"/><path d="M70.4056-99.3829C70.4056-102.509 72.8888-105.042 75.952-105.042 79.0153-105.042 81.4985-102.509 81.4985-99.3829 81.4985-96.2572 79.0153-93.7232 75.952-93.7232 72.8888-93.7232 70.4056-96.2572 70.4056-99.3829Z" fill="#7F7F7F" fill-rule="evenodd" transform="matrix(1.0126 0 0 1 222.734 -86.3712)"/><path d="M70.1792-77.9895C70.1792-80.6776 72.3584-82.8568 75.0465-82.8568 77.7346-82.8568 79.9138-80.6776 79.9138-77.9895 79.9138-75.3014 77.7346-73.1222 75.0465-73.1222 72.3584-73.1222 70.1792-75.3014 70.1792-77.9895Z" fill="#7F7F7F" fill-rule="evenodd" transform="matrix(1.0126 0 0 1 222.734 -86.3712)"/><path d="M72.6695-84.6679C72.6695-87.4184 74.8487-89.6483 77.5367-89.6483 80.2248-89.6483 82.404-87.4184 82.404-84.6679 82.404-81.9173 80.2248-79.6874 77.5367-79.6874 74.8487-79.6874 72.6695-81.9173 72.6695-84.6679Z" fill="#7F7F7F" fill-rule="evenodd" transform="matrix(1.0126 0 0 1 222.734 -86.3712)"/><path d="M73.1222-89.6483C73.1222-91.6487 74.6934-93.2705 76.6312-93.2705 78.5691-93.2705 80.1402-91.6487 80.1402-89.6483 80.1402-87.6478 78.5691-86.0262 76.6312-86.0262 74.6934-86.0262 73.1222-87.6478 73.1222-89.6483Z" fill="#7F7F7F" fill-rule="evenodd" transform="matrix(1.0126 0 0 1 222.734 -86.3712)"/><path d="M66.3307-93.9496C66.3307-97.0753 68.8646-99.6092 71.9903-99.6092 75.116-99.6092 77.6499-97.0753 77.6499-93.9496 77.6499-90.8239 75.116-88.29 71.9903-88.29 68.8646-88.29 66.3307-90.8239 66.3307-93.9496Z" fill="#7F7F7F" fill-rule="evenodd" transform="matrix(1.0126 0 0 1 222.734 -86.3712)"/><path d="M65.1988-86.7053C65.1988-89.206 67.2258-91.233 69.7265-91.233 72.2271-91.233 74.2542-89.206 74.2542-86.7053 74.2542-84.2047 72.2271-82.1776 69.7265-82.1776 67.2258-82.1776 65.1988-84.2047 65.1988-86.7053Z" fill="#7F7F7F" fill-rule="evenodd" transform="matrix(1.0126 0 0 1 222.734 -86.3712)"/><path d="M67.2362-92.9309C67.2362-95.3688 69.2633-97.3454 71.7639-97.3454 74.2646-97.3454 76.2916-95.3688 76.2916-92.9309 76.2916-90.4927 74.2646-88.5164 71.7639-88.5164 69.2633-88.5164 67.2362-90.4927 67.2362-92.9309Z" fill="#7F7F7F" fill-rule="evenodd" transform="matrix(1.0126 0 0 1 222.734 -86.3712)"/><path d="M53.4268-89.9879C53.4268-92.4261 55.4538-94.4024 57.9545-94.4024 60.4551-94.4024 62.4822-92.4261 62.4822-89.9879 62.4822-87.5497 60.4551-85.5734 57.9545-85.5734 55.4538-85.5734 53.4268-87.5497 53.4268-89.9879Z" fill="#7F7F7F" fill-rule="evenodd" transform="matrix(1.0126 0 0 1 222.734 -86.3712)"/><path d="M58.1809-85.0074C58.1809-87.5706 60.2586-89.6483 62.8217-89.6483 65.3849-89.6483 67.4626-87.5706 67.4626-85.0074 67.4626-82.4443 65.3849-80.3666 62.8217-80.3666 60.2586-80.3666 58.1809-82.4443 58.1809-85.0074Z" fill="#7F7F7F" fill-rule="evenodd" transform="matrix(1.0126 0 0 1 222.734 -86.3712)"/><path d="M63.1613-90.4407C63.1613-92.6287 64.8843-94.4024 67.0099-94.4024 69.1354-94.4024 70.8584-92.6287 70.8584-90.4407 70.8584-88.2527 69.1354-86.4789 67.0099-86.4789 64.8843-86.4789 63.1613-88.2527 63.1613-90.4407Z" fill="#7F7F7F" fill-rule="evenodd" transform="matrix(1.0126 0 0 1 222.734 -86.3712)"/><path d="M51.6157-84.7811C51.6157-87.4691 53.7442-89.6483 56.3698-89.6483 58.9954-89.6483 61.1239-87.4691 61.1239-84.7811 61.1239-82.093 58.9954-79.9138 56.3698-79.9138 53.7442-79.9138 51.6157-82.093 51.6157-84.7811Z" fill="#7F7F7F" fill-rule="evenodd" transform="matrix(1.0126 0 0 1 222.734 -86.3712)"/><path d="M76.518-103.684C76.518-105.81 78.1903-107.533 80.2534-107.533 82.3164-107.533 83.9887-105.81 83.9887-103.684 83.9887-101.559 82.3164-99.8356 80.2534-99.8356 78.1903-99.8356 76.518-101.559 76.518-103.684Z" fill="#7F7F7F" fill-rule="evenodd" transform="matrix(1.0126 0 0 1 222.734 -86.3712)"/><path d="M78.1027-98.9301C78.1027-101.056 79.775-102.779 81.8381-102.779 83.9011-102.779 85.5734-101.056 85.5734-98.9301 85.5734-96.8046 83.9011-95.0816 81.8381-95.0816 79.775-95.0816 78.1027-96.8046 78.1027-98.9301Z" fill="#7F7F7F" fill-rule="evenodd" transform="matrix(1.0126 0 0 1 222.734 -86.3712)"/></g></g></g></g></g></svg>