<svg width="433" height="186" xmlns="http://www.w3.org/2000/svg" xmlns:xlink="http://www.w3.org/1999/xlink" overflow="hidden"><defs><clipPath id="clip0"><rect x="411" y="495" width="433" height="186"/></clipPath></defs><g clip-path="url(#clip0)" transform="translate(-411 -495)"><text fill="#FFFFFF" font-family="Montserrat,Montserrat_MSFontService,sans-serif" font-weight="600" font-size="88" transform="translate(507.011 606)">atems</text><path d="M462 546C462 541.582 465.582 538 470 538 474.418 538 478 541.582 478 546 478 550.418 474.418 554 470 554 465.582 554 462 550.418 462 546Z" fill="#FFFFFF" fill-rule="evenodd"/><path d="M460 556C460 550.477 464.477 546 470 546 475.523 546 480 550.477 480 556 480 561.523 475.523 566 470 566 464.477 566 460 561.523 460 556Z" fill="#FFFFFF" fill-rule="evenodd"/><path d="M469 567.5C469 563.358 472.358 560 476.5 560 480.642 560 484 563.358 484 567.5 484 571.642 480.642 575 476.5 575 472.358 575 469 571.642 469 567.5Z" fill="#FFFFFF" fill-rule="evenodd"/><path d="M464 579.5C464 575.358 467.358 572 471.5 572 475.642 572 479 575.358 479 579.5 479 583.642 475.642 587 471.5 587 467.358 587 464 583.642 464 579.5Z" fill="#FFFFFF" fill-rule="evenodd"/><path d="M448 572C448 565.925 452.925 561 459 561 465.075 561 470 565.925 470 572 470 578.075 465.075 583 459 583 452.925 583 448 578.075 448 572Z" fill="#FFFFFF" fill-rule="evenodd"/><path d="M448 614C448 608.477 452.253 604 457.5 604 462.747 604 467 608.477 467 614 467 619.523 462.747 624 457.5 624 452.253 624 448 619.523 448 614Z" fill="#FFFFFF" fill-rule="evenodd"/><path d="M453 601C453 595.477 457.253 591 462.5 591 467.747 591 472 595.477 472 601 472 606.523 467.747 611 462.5 611 457.253 611 453 606.523 453 601Z" fill="#FFFFFF" fill-rule="evenodd"/><path d="M453 591C453 587.134 456.134 584 460 584 463.866 584 467 587.134 467 591 467 594.866 463.866 598 460 598 456.134 598 453 594.866 453 591Z" fill="#FFFFFF" fill-rule="evenodd"/><path d="M440 583C440 576.925 444.925 572 451 572 457.075 572 462 576.925 462 583 462 589.075 457.075 594 451 594 444.925 594 440 589.075 440 583Z" fill="#FFFFFF" fill-rule="evenodd"/><path d="M438 597C438 592.029 442.029 588 447 588 451.971 588 456 592.029 456 597 456 601.971 451.971 606 447 606 442.029 606 438 601.971 438 597Z" fill="#FFFFFF" fill-rule="evenodd"/><path d="M442 584.5C442 579.806 446.029 576 451 576 455.971 576 460 579.806 460 584.5 460 589.194 455.971 593 451 593 446.029 593 442 589.194 442 584.5Z" fill="#FFFFFF" fill-rule="evenodd"/><path d="M415 590.5C415 585.806 419.029 582 424 582 428.971 582 433 585.806 433 590.5 433 595.194 428.971 599 424 599 419.029 599 415 595.194 415 590.5Z" fill="#FFFFFF" fill-rule="evenodd"/><path d="M424 600C424 595.029 428.029 591 433 591 437.971 591 442 595.029 442 600 442 604.971 437.971 609 433 609 428.029 609 424 604.971 424 600Z" fill="#FFFFFF" fill-rule="evenodd"/><path d="M434 589.5C434 585.358 437.358 582 441.5 582 445.642 582 449 585.358 449 589.5 449 593.642 445.642 597 441.5 597 437.358 597 434 593.642 434 589.5Z" fill="#FFFFFF" fill-rule="evenodd"/><path d="M411 600.5C411 595.253 415.253 591 420.5 591 425.747 591 430 595.253 430 600.5 430 605.747 425.747 610 420.5 610 415.253 610 411 605.747 411 600.5Z" fill="#FFFFFF" fill-rule="evenodd"/><path d="M460 563.5C460 559.358 463.358 556 467.5 556 471.642 556 475 559.358 475 563.5 475 567.642 471.642 571 467.5 571 463.358 571 460 567.642 460 563.5Z" fill="#FFFFFF" fill-rule="evenodd"/><path d="M463 572.5C463 568.358 466.358 565 470.5 565 474.642 565 478 568.358 478 572.5 478 576.642 474.642 580 470.5 580 466.358 580 463 576.642 463 572.5Z" fill="#FFFFFF" fill-rule="evenodd"/></g></svg>